<svg width="64" height="64" viewBox="0 0 64 64" fill="none" xmlns="http://www.w3.org/2000/svg">
<path d="M54.4953 7.21001C54.4953 7.21001 44.0877 9.58541 38.921 13.9188C38.921 13.9188 29.921 11.4188 25.0877 14.0855C25.0877 14.0855 15.4328 7.35371 9.4328 7.35371C9.4328 7.35371 4.4002 11.1037 9.7544 28.4188C9.7544 28.4188 7.0877 39.0855 11.4211 44.7521C15.7545 50.4187 21.2544 54.2521 21.2544 54.2521L30.0461 58.2938L34.0044 58.4605L43.9211 54.0855C43.9211 54.0855 50.5878 49.2522 52.7544 44.5855C54.9211 39.9188 54.9211 30.7522 54.9211 30.7522L53.9211 27.4189L56.7544 16.3981L54.4953 7.21001Z" fill="#F4AA41"/>
<path d="M26.8377 43.3355C26.8377 43.3355 19.2127 46.0855 25.4627 52.5855C25.4627 52.5855 24.4888 57.2105 29.2661 58.0704H34.4627C36.5156 58.0735 39.046 57.0021 38.2031 52.7076C38.2031 52.7076 45.7544 46.3354 36.8377 43.3354L31.9627 45.3354L26.8377 43.3355Z" fill="white"/>
<path d="M41.0854 36.9152C41.9945 36.9152 42.7315 35.6563 42.7315 34.1033C42.7315 32.5503 41.9945 31.2914 41.0854 31.2914C40.1763 31.2914 39.4393 32.5503 39.4393 34.1033C39.4393 35.6563 40.1763 36.9152 41.0854 36.9152Z" fill="black"/>
<path d="M22.8427 36.9152C23.7518 36.9152 24.4888 35.6563 24.4888 34.1033C24.4888 32.5503 23.7518 31.2914 22.8427 31.2914C21.9336 31.2914 21.1966 32.5503 21.1966 34.1033C21.1966 35.6563 21.9336 36.9152 22.8427 36.9152Z" fill="black"/>
<path d="M27.9328 43.2287L32.037 46.0204L35.8495 43.2287" stroke="black" stroke-width="2" stroke-miterlimit="10" stroke-linecap="round" stroke-linejoin="round"/>
<path d="M32.037 46.0204V50.2912C32.037 50.2912 30.9328 53.9787 26.4953 53.1662" stroke="black" stroke-width="2" stroke-miterlimit="10" stroke-linecap="round" stroke-linejoin="round"/>
<path d="M11.8717 44.4759C6.9789 37.2224 9.8703 28.6037 9.8703 28.6037C9.8703 28.6037 4.6203 13.7287 9.4328 7.35371C9.4328 7.35371 18.6203 8.85371 25.1203 14.7287C29.7149 12.7908 34.2778 12.7159 38.8078 14.585C45.3078 8.71001 54.4953 7.21001 54.4953 7.21001C59.3078 13.585 54.0578 28.46 54.0578 28.46C54.0578 28.46 56.9492 37.0787 52.0564 44.3322" stroke="black" stroke-width="2" stroke-miterlimit="10" stroke-linecap="round" stroke-linejoin="round"/>
<path d="M10.7453 11.1037C10.7453 11.1037 23.5578 17.2912 20.8078 22.9162" stroke="black" stroke-width="2" stroke-miterlimit="10" stroke-linecap="round" stroke-linejoin="round"/>
<path d="M20.8491 46.8753C20.8491 46.8753 11.4876 46.4173 7.1966 54.3996" stroke="black" stroke-width="2" stroke-miterlimit="10" stroke-linecap="round" stroke-linejoin="round"/>
<path d="M31.8911 45.8767V50.1475C31.8911 50.1475 32.9953 53.835 37.4328 53.0225" stroke="black" stroke-width="2" stroke-miterlimit="10" stroke-linecap="round" stroke-linejoin="round"/>
<path d="M53.1828 10.96C53.1828 10.96 40.3703 17.1475 43.1203 22.7725" stroke="black" stroke-width="2" stroke-miterlimit="10" stroke-linecap="round" stroke-linejoin="round"/>
<path d="M43.2048 50.6836C43.2048 50.6836 51.4164 52.929 51.8843 61.9794" stroke="black" stroke-width="2" stroke-miterlimit="10" stroke-linecap="round" stroke-linejoin="round"/>
<path d="M44.079 46.7316C44.079 46.7316 53.4405 46.2736 57.7315 54.2559" stroke="black" stroke-width="2" stroke-miterlimit="10" stroke-linecap="round" stroke-linejoin="round"/>
<path d="M27.3859 56.7598C31.2659 58.4443 33.034 58.5691 36.688 56.7598" stroke="black" stroke-width="2" stroke-miterlimit="10" stroke-linecap="round" stroke-linejoin="round"/>
<path d="M21.4446 50.6836C21.4446 50.6836 13.233 52.929 12.7651 61.9794" stroke="black" stroke-width="2" stroke-miterlimit="10" stroke-linecap="round" stroke-linejoin="round"/>
</svg>
